<?xml version="1.0" standalone="no"?>
<!DOCTYPE svg PUBLIC "-//W3C//DTD SVG 20010904//EN"
 "http://www.w3.org/TR/2001/REC-SVG-20010904/DTD/svg10.dtd">
<svg version="1.0" xmlns="http://www.w3.org/2000/svg"
 viewBox="0 0 192.000000 192.000000"
 preserveAspectRatio="xMidYMid meet">
<metadata>
Created by potrace 1.14, written by Peter Selinger 2001-2017
</metadata>
<g transform="translate(0.000000,192.000000) scale(0.100000,-0.100000)"
fill="#000000" stroke="none">
<path d="M1084 1625 c-16 -7 -158 -143 -316 -301 -328 -330 -342 -350 -342
-480 -1 -114 33 -169 202 -336 120 -120 143 -138 171 -138 22 0 40 8 56 26 45
49 37 65 -110 214 -168 171 -189 214 -146 305 12 26 121 142 305 325 300 299
305 305 276 360 -15 28 -61 40 -96 25z"/>
</g>
</svg>
